# xmcd CD database file
#
# Track frame offsets:
#	150
#	16443
#	35463
#	56339
#	71852
#	89374
#	105751
#	121253
#	136880
#	156378
#	173935
#	188786
#	206063
#
# Disc length: 2946 seconds
#
# Revision: 2
# Processed by: cddbd v1.5.2PL0 Copyright (c) Steve Scherf et al.
# Submitted via: CDex 1.77
#
DISCID=af0b800d
DTITLE=Pink - Funhouse
DYEAR=2008
DGENRE=Pop
TTITLE0=So what
TTITLE1=Sober
TTITLE2=I don't believe you
TTITLE3=One foot wrong
TTITLE4=Please don't leave me
TTITLE5=Bad influence
TTITLE6=Funhouse
TTITLE7=Crystal ball
TTITLE8=Mean
TTITLE9=It's all your fault
TTITLE10=Ave Mary a
TTITLE11=Glitter in the air
TTITLE12=This is how it goes down
EXTD=YEAR: 2008
EXTT0=
EXTT1=
EXTT2=
EXTT3=
EXTT4=
EXTT5=
EXTT6=
EXTT7=
EXTT8=
EXTT9=
EXTT10=
EXTT11=
EXTT12=
PLAYORDER=
